<svg id="SvgjsSvg1015" xmlns="http://www.w3.org/2000/svg" version="1.1" xmlns:xlink="http://www.w3.org/1999/xlink" xmlns:svgjs="http://svgjs.com/svgjs" width="34" height="34" viewBox="0 0 34 34"><title>Shape 1</title><desc>Created with Avocode.</desc><defs id="SvgjsDefs1016"></defs><path id="SvgjsPath1017" d="M515 596C505.65 596 498 603.65 498 613C498 622.35 505.65 630 515 630C524.35 630 532 622.35 532 613C532 603.65 524.35 596 515 596ZM515 628.866C506.273 628.866 499.133 621.727 499.133 613C499.133 604.273 506.27299999999997 597.133 515 597.133C523.727 597.133 530.867 604.273 530.867 613C530.867 621.727 523.727 628.866 515 628.866ZM506.5 602.233C506.613 602.233 506.727 602.1769999999999 506.783 602.063C508.54 600.76 510.637 599.853 512.79 599.513C513.073 599.513 513.3 599.173 513.2429999999999 598.89C513.2429999999999 598.607 512.9029999999999 598.38 512.6199999999999 598.436C510.2969999999999 598.8330000000001 508.0869999999999 599.797 506.1599999999999 601.2130000000001C505.93299999999994 601.383 505.8769999999999 601.7800000000001 506.0469999999999 602.0070000000001C506.1599999999999 602.176 506.3299999999999 602.2330000000001 506.4999999999999 602.2330000000001ZM504.007 604.103C503.78000000000003 603.933 503.383 603.9899999999999 503.213 604.216C501.74 606.087 500.833 608.353 500.437 610.676C500.38 610.96 500.607 611.243 500.89 611.3000000000001C500.947 611.3000000000001 500.947 611.3000000000001 501.003 611.3000000000001C501.287 611.3000000000001 501.513 611.1300000000001 501.57 610.8460000000001C501.90999999999997 608.6930000000001 502.817 606.6530000000001 504.12 604.8970000000002C504.29 604.6700000000002 504.233 604.2730000000001 504.007 604.1030000000002ZM501.513 615.21C501.513 614.927 501.173 614.7 500.89 614.7560000000001C500.60699999999997 614.7560000000001 500.38 615.0960000000001 500.437 615.3800000000001C500.833 617.7030000000001 501.797 619.9130000000001 503.213 621.8400000000001C503.327 622.0100000000001 503.497 622.0660000000001 503.66700000000003 622.0660000000001C503.78000000000003 622.0660000000001 503.89300000000003 622.0100000000001 503.95000000000005 622.0100000000001C504.177 621.8400000000001 504.23300000000006 621.4430000000001 504.06300000000005 621.2170000000001C502.76000000000005 619.4600000000002 501.85300000000007 617.363 501.51300000000003 615.2100000000002ZM512.79 626.43C510.63699999999994 626.0899999999999 508.597 625.183 506.84 623.88C506.613 623.71 506.217 623.766 506.04699999999997 623.993C505.87699999999995 624.22 505.933 624.6170000000001 506.15999999999997 624.7860000000001C508.03 626.2600000000001 510.29699999999997 627.166 512.62 627.5630000000001C512.677 627.5630000000001 512.677 627.5630000000001 512.7330000000001 627.5630000000001C513.017 627.5630000000001 513.243 627.3370000000001 513.243 627.0530000000001C513.3000000000001 626.7700000000001 513.0730000000001 626.4860000000001 512.7900000000001 626.4300000000001ZM523.103 623.937C521.347 625.24 519.3069999999999 626.147 517.1529999999999 626.486C516.8699999999999 626.486 516.6429999999999 626.826 516.6999999999999 627.11C516.757 627.393 516.983 627.563 517.2669999999999 627.563C517.323 627.563 517.323 627.563 517.323 627.62C519.6469999999999 627.223 521.857 626.26 523.783 624.843C524.01 624.673 524.066 624.276 523.897 624.05C523.7270000000001 623.823 523.33 623.766 523.1030000000001 623.9369999999999ZM529.053 614.756C528.77 614.6999999999999 528.487 614.927 528.43 615.2099999999999C528.0899999999999 617.3629999999999 527.183 619.4029999999999 525.88 621.16C525.71 621.386 525.7669999999999 621.783 525.993 621.953C526.1070000000001 622.01 526.22 622.066 526.3330000000001 622.066C526.503 622.066 526.6730000000001 621.953 526.7300000000001 621.84C528.2030000000001 619.97 529.1100000000001 617.7030000000001 529.5070000000002 615.38C529.5630000000002 615.096 529.3370000000002 614.813 529.0530000000002 614.756ZM528.43 610.846C528.487 611.13 528.713 611.3 528.997 611.3C528.997 611.3 529.053 611.3 529.11 611.2429999999999C529.393 611.2429999999999 529.62 610.9029999999999 529.563 610.6199999999999C529.167 608.2969999999999 528.203 606.0859999999999 526.787 604.1599999999999C526.6170000000001 603.9329999999999 526.22 603.8759999999999 525.993 604.0459999999998C525.767 604.2159999999998 525.71 604.6129999999998 525.88 604.8399999999998C527.183 606.5969999999998 528.09 608.6929999999998 528.43 610.8459999999998ZM517.153 599.57C519.307 599.9100000000001 521.403 600.816 523.16 602.12C523.273 602.176 523.387 602.2330000000001 523.5 602.2330000000001C523.67 602.2330000000001 523.84 602.177 523.897 602.0630000000001C524.066 601.8360000000001 524.0100000000001 601.44 523.783 601.2700000000001C521.913 599.8530000000001 519.647 598.8900000000001 517.323 598.493C517.04 598.436 516.757 598.663 516.6999999999999 598.946C516.6429999999999 599.23 516.8699999999999 599.513 517.1529999999999 599.57ZM515 601.666C515.34 601.666 515.567 601.383 515.567 601.1V598.833C515.567 598.4929999999999 515.34 598.2669999999999 515 598.2669999999999C514.66 598.2669999999999 514.433 598.4929999999999 514.433 598.833V601.1C514.433 601.44 514.66 601.666 515 601.666ZM515 624.333C514.66 624.333 514.433 624.56 514.433 624.9V627.1659999999999C514.433 627.506 514.66 627.733 515 627.733C515.34 627.733 515.567 627.506 515.567 627.1659999999999V624.9C515.567 624.56 515.34 624.333 515 624.333ZM529.167 612.433H526.9C526.56 612.433 526.333 612.66 526.333 613C526.333 613.34 526.56 613.566 526.9 613.566H529.167C529.5070000000001 613.566 529.7330000000001 613.34 529.7330000000001 613C529.7330000000001 612.66 529.5070000000001 612.433 529.167 612.433ZM503.1 613.566C503.38300000000004 613.566 503.66700000000003 613.34 503.66700000000003 613C503.66700000000003 612.66 503.44000000000005 612.433 503.1 612.433H500.833C500.49300000000005 612.433 500.26700000000005 612.66 500.26700000000005 613C500.26700000000005 613.34 500.49300000000005 613.566 500.833 613.566ZM524.633 602.573L523.047 604.16C522.82 604.387 522.82 604.726 523.047 604.953C523.1600000000001 605.067 523.273 605.1229999999999 523.443 605.1229999999999C523.557 605.1229999999999 523.727 605.0669999999999 523.84 604.953L525.427 603.367C525.653 603.14 525.653 602.8 525.427 602.573C525.2 602.346 524.86 602.346 524.633 602.573ZM506.953 621.047C506.727 620.82 506.387 620.82 506.15999999999997 621.047L504.573 622.633C504.347 622.86 504.347 623.2 504.573 623.427C504.68699999999995 623.5400000000001 504.79999999999995 623.596 504.96999999999997 623.596C505.14 623.596 505.253 623.54 505.36699999999996 623.427L506.953 621.84C507.17999999999995 621.613 507.17999999999995 621.273 506.953 621.047ZM523.84 621.047C523.613 620.82 523.273 620.82 523.047 621.047C522.82 621.273 522.82 621.613 523.047 621.84L524.633 623.427C524.7470000000001 623.5400000000001 524.86 623.596 525.0300000000001 623.596C525.1430000000001 623.596 525.3130000000001 623.54 525.4270000000001 623.427C525.6530000000001 623.2 525.6530000000001 622.86 525.4270000000001 622.633ZM506.16 604.953C506.273 605.067 506.387 605.1229999999999 506.557 605.1229999999999C506.72700000000003 605.1229999999999 506.897 605.0669999999999 506.95300000000003 604.953C507.18 604.726 507.18 604.387 506.95300000000003 604.16L505.367 602.573C505.14000000000004 602.346 504.8 602.346 504.57300000000004 602.573C504.34700000000004 602.8 504.34700000000004 603.14 504.57300000000004 603.367ZM521.8 613C521.8 612.66 521.573 612.433 521.233 612.433H517.194C516.9879999999999 611.64 516.36 611.012 515.567 610.805V604.5C515.567 604.16 515.34 603.933 515 603.933C514.66 603.933 514.433 604.16 514.433 604.5V610.805C513.459 611.059 512.733 611.949 512.733 613C512.733 614.246 513.7529999999999 615.266 515 615.266C516.051 615.266 516.941 614.5409999999999 517.194 613.5659999999999H521.233C521.573 613.5659999999999 521.8 613.3399999999999 521.8 612.9999999999999ZM515 614.133C514.377 614.133 513.867 613.623 513.867 613C513.867 612.376 514.377 611.866 515 611.866C515.623 611.866 516.133 612.376 516.133 613C516.133 613.623 515.623 614.133 515 614.133Z " fill="#000000" fill-opacity="1" transform="matrix(1,0,0,1,-498,-596)"></path><path id="SvgjsPath1018" d="M515 596C505.65 596 498 603.65 498 613C498 622.35 505.65 630 515 630C524.35 630 532 622.35 532 613C532 603.65 524.35 596 515 596ZM515 628.866C506.273 628.866 499.133 621.727 499.133 613C499.133 604.273 506.27299999999997 597.133 515 597.133C523.727 597.133 530.867 604.273 530.867 613C530.867 621.727 523.727 628.866 515 628.866ZM506.5 602.233C506.613 602.233 506.727 602.1769999999999 506.783 602.063C508.54 600.76 510.637 599.853 512.79 599.513C513.073 599.513 513.3 599.173 513.2429999999999 598.89C513.2429999999999 598.607 512.9029999999999 598.38 512.6199999999999 598.436C510.2969999999999 598.8330000000001 508.0869999999999 599.797 506.1599999999999 601.2130000000001C505.93299999999994 601.383 505.8769999999999 601.7800000000001 506.0469999999999 602.0070000000001C506.1599999999999 602.176 506.3299999999999 602.2330000000001 506.4999999999999 602.2330000000001ZM504.007 604.103C503.78000000000003 603.933 503.383 603.9899999999999 503.213 604.216C501.74 606.087 500.833 608.353 500.437 610.676C500.38 610.96 500.607 611.243 500.89 611.3000000000001C500.947 611.3000000000001 500.947 611.3000000000001 501.003 611.3000000000001C501.287 611.3000000000001 501.513 611.1300000000001 501.57 610.8460000000001C501.90999999999997 608.6930000000001 502.817 606.6530000000001 504.12 604.8970000000002C504.29 604.6700000000002 504.233 604.2730000000001 504.007 604.1030000000002ZM501.513 615.21C501.513 614.927 501.173 614.7 500.89 614.7560000000001C500.60699999999997 614.7560000000001 500.38 615.0960000000001 500.437 615.3800000000001C500.833 617.7030000000001 501.797 619.9130000000001 503.213 621.8400000000001C503.327 622.0100000000001 503.497 622.0660000000001 503.66700000000003 622.0660000000001C503.78000000000003 622.0660000000001 503.89300000000003 622.0100000000001 503.95000000000005 622.0100000000001C504.177 621.8400000000001 504.23300000000006 621.4430000000001 504.06300000000005 621.2170000000001C502.76000000000005 619.4600000000002 501.85300000000007 617.363 501.51300000000003 615.2100000000002ZM512.79 626.43C510.63699999999994 626.0899999999999 508.597 625.183 506.84 623.88C506.613 623.71 506.217 623.766 506.04699999999997 623.993C505.87699999999995 624.22 505.933 624.6170000000001 506.15999999999997 624.7860000000001C508.03 626.2600000000001 510.29699999999997 627.166 512.62 627.5630000000001C512.677 627.5630000000001 512.677 627.5630000000001 512.7330000000001 627.5630000000001C513.017 627.5630000000001 513.243 627.3370000000001 513.243 627.0530000000001C513.3000000000001 626.7700000000001 513.0730000000001 626.4860000000001 512.7900000000001 626.4300000000001ZM523.103 623.937C521.347 625.24 519.3069999999999 626.147 517.1529999999999 626.486C516.8699999999999 626.486 516.6429999999999 626.826 516.6999999999999 627.11C516.757 627.393 516.983 627.563 517.2669999999999 627.563C517.323 627.563 517.323 627.563 517.323 627.62C519.6469999999999 627.223 521.857 626.26 523.783 624.843C524.01 624.673 524.066 624.276 523.897 624.05C523.7270000000001 623.823 523.33 623.766 523.1030000000001 623.9369999999999ZM529.053 614.756C528.77 614.6999999999999 528.487 614.927 528.43 615.2099999999999C528.0899999999999 617.3629999999999 527.183 619.4029999999999 525.88 621.16C525.71 621.386 525.7669999999999 621.783 525.993 621.953C526.1070000000001 622.01 526.22 622.066 526.3330000000001 622.066C526.503 622.066 526.6730000000001 621.953 526.7300000000001 621.84C528.2030000000001 619.97 529.1100000000001 617.7030000000001 529.5070000000002 615.38C529.5630000000002 615.096 529.3370000000002 614.813 529.0530000000002 614.756ZM528.43 610.846C528.487 611.13 528.713 611.3 528.997 611.3C528.997 611.3 529.053 611.3 529.11 611.2429999999999C529.393 611.2429999999999 529.62 610.9029999999999 529.563 610.6199999999999C529.167 608.2969999999999 528.203 606.0859999999999 526.787 604.1599999999999C526.6170000000001 603.9329999999999 526.22 603.8759999999999 525.993 604.0459999999998C525.767 604.2159999999998 525.71 604.6129999999998 525.88 604.8399999999998C527.183 606.5969999999998 528.09 608.6929999999998 528.43 610.8459999999998ZM517.153 599.57C519.307 599.9100000000001 521.403 600.816 523.16 602.12C523.273 602.176 523.387 602.2330000000001 523.5 602.2330000000001C523.67 602.2330000000001 523.84 602.177 523.897 602.0630000000001C524.066 601.8360000000001 524.0100000000001 601.44 523.783 601.2700000000001C521.913 599.8530000000001 519.647 598.8900000000001 517.323 598.493C517.04 598.436 516.757 598.663 516.6999999999999 598.946C516.6429999999999 599.23 516.8699999999999 599.513 517.1529999999999 599.57ZM515 601.666C515.34 601.666 515.567 601.383 515.567 601.1V598.833C515.567 598.4929999999999 515.34 598.2669999999999 515 598.2669999999999C514.66 598.2669999999999 514.433 598.4929999999999 514.433 598.833V601.1C514.433 601.44 514.66 601.666 515 601.666ZM515 624.333C514.66 624.333 514.433 624.56 514.433 624.9V627.1659999999999C514.433 627.506 514.66 627.733 515 627.733C515.34 627.733 515.567 627.506 515.567 627.1659999999999V624.9C515.567 624.56 515.34 624.333 515 624.333ZM529.167 612.433H526.9C526.56 612.433 526.333 612.66 526.333 613C526.333 613.34 526.56 613.566 526.9 613.566H529.167C529.5070000000001 613.566 529.7330000000001 613.34 529.7330000000001 613C529.7330000000001 612.66 529.5070000000001 612.433 529.167 612.433ZM503.1 613.566C503.38300000000004 613.566 503.66700000000003 613.34 503.66700000000003 613C503.66700000000003 612.66 503.44000000000005 612.433 503.1 612.433H500.833C500.49300000000005 612.433 500.26700000000005 612.66 500.26700000000005 613C500.26700000000005 613.34 500.49300000000005 613.566 500.833 613.566ZM524.633 602.573L523.047 604.16C522.82 604.387 522.82 604.726 523.047 604.953C523.1600000000001 605.067 523.273 605.1229999999999 523.443 605.1229999999999C523.557 605.1229999999999 523.727 605.0669999999999 523.84 604.953L525.427 603.367C525.653 603.14 525.653 602.8 525.427 602.573C525.2 602.346 524.86 602.346 524.633 602.573ZM506.953 621.047C506.727 620.82 506.387 620.82 506.15999999999997 621.047L504.573 622.633C504.347 622.86 504.347 623.2 504.573 623.427C504.68699999999995 623.5400000000001 504.79999999999995 623.596 504.96999999999997 623.596C505.14 623.596 505.253 623.54 505.36699999999996 623.427L506.953 621.84C507.17999999999995 621.613 507.17999999999995 621.273 506.953 621.047ZM523.84 621.047C523.613 620.82 523.273 620.82 523.047 621.047C522.82 621.273 522.82 621.613 523.047 621.84L524.633 623.427C524.7470000000001 623.5400000000001 524.86 623.596 525.0300000000001 623.596C525.1430000000001 623.596 525.3130000000001 623.54 525.4270000000001 623.427C525.6530000000001 623.2 525.6530000000001 622.86 525.4270000000001 622.633ZM506.16 604.953C506.273 605.067 506.387 605.1229999999999 506.557 605.1229999999999C506.72700000000003 605.1229999999999 506.897 605.0669999999999 506.95300000000003 604.953C507.18 604.726 507.18 604.387 506.95300000000003 604.16L505.367 602.573C505.14000000000004 602.346 504.8 602.346 504.57300000000004 602.573C504.34700000000004 602.8 504.34700000000004 603.14 504.57300000000004 603.367ZM521.8 613C521.8 612.66 521.573 612.433 521.233 612.433H517.194C516.9879999999999 611.64 516.36 611.012 515.567 610.805V604.5C515.567 604.16 515.34 603.933 515 603.933C514.66 603.933 514.433 604.16 514.433 604.5V610.805C513.459 611.059 512.733 611.949 512.733 613C512.733 614.246 513.7529999999999 615.266 515 615.266C516.051 615.266 516.941 614.5409999999999 517.194 613.5659999999999H521.233C521.573 613.5659999999999 521.8 613.3399999999999 521.8 612.9999999999999ZM515 614.133C514.377 614.133 513.867 613.623 513.867 613C513.867 612.376 514.377 611.866 515 611.866C515.623 611.866 516.133 612.376 516.133 613C516.133 613.623 515.623 614.133 515 614.133Z " fill="#74b1ee" fill-opacity="1" transform="matrix(1,0,0,1,-498,-596)"></path></svg>