<svg id="SvgjsSvg1008" xmlns="http://www.w3.org/2000/svg" version="1.1" xmlns:xlink="http://www.w3.org/1999/xlink" xmlns:svgjs="http://svgjs.com/svgjs" width="645" height="80" viewBox="0 0 645 80"><title>Rectangle 1 copy</title><desc>Created with Avocode.</desc><defs id="SvgjsDefs1009"><linearGradient id="SvgjsLinearGradient1012" gradientUnits="userSpaceOnUse" x1="392.50010000000003" y1="190.999" x2="392.5001000000001" y2="111.999"><stop id="SvgjsStop1013" stop-opacity="1" stop-color="#afcbfe" offset="0"></stop><stop id="SvgjsStop1014" stop-opacity="1" stop-color="#80a4e5" offset="1"></stop></linearGradient></defs><path id="SvgjsPath1010" d="M715 131.586C715 131.586 658.756 164.39100000000002 553.668 151.173C448.58000000000004 137.953 365.82 111.999 253.534 111.999C161.35399999999998 111.999 70.00019999999998 128.321 70.00019999999998 128.321V190.999C70.00019999999998 190.999 118.18599999999998 147.091 250.903 138.767C383.619 130.444 439.932 163.334 552.42 164.803C664.909 166.271 715 135.503 715 135.503Z " fill="#ffffff" fill-opacity="0" transform="matrix(1,0,0,1,-70,-111)"></path><path id="SvgjsPath1011" d="M715 131.586C715 131.586 658.756 164.39100000000002 553.668 151.173C448.58000000000004 137.953 365.82 111.999 253.534 111.999C161.35399999999998 111.999 70.00019999999998 128.321 70.00019999999998 128.321V190.999C70.00019999999998 190.999 118.18599999999998 147.091 250.903 138.767C383.619 130.444 439.932 163.334 552.42 164.803C664.909 166.271 715 135.503 715 135.503Z " fill="url(#SvgjsLinearGradient1012)" transform="matrix(1,0,0,1,-70,-111)"></path></svg>